<?xml version="1.0" standalone="no"?>
<!DOCTYPE svg PUBLIC "-//W3C//DTD SVG 1.1//EN" "http://www.w3.org/Graphics/SVG/1.1/DTD/svg11.dtd" >
<svg xmlns="http://www.w3.org/2000/svg">
<metadata>Generated by IcoMoon</metadata>
<defs>
<font id="icomoon" horiz-adv-x="512">
<font-face units-per-em="512" ascent="480" descent="-32" />
<missing-glyph horiz-adv-x="512" />
<glyph unicode="&#x20;" d="" horiz-adv-x="256" />
<glyph unicode="&#x66;" d="M204.867 239.060l-58.562 0.091 14.588 61.886 48.657-0.077c12.243 94.318 61.151 149.117 123.662 169.146-28.265 4.584-61.482 7.755-100.021 7.818l-0.567 0.001c-144.874 0.233-217.185-43.188-218.083-43.709l-2.735-1.655-0.543-3.159c-7.705-43.339-11.203-82.724-11.264-118.475-0.248-120.985 38.967-200.615 85.080-251.915 92.383 13.143 113.745 112.77 119.786 180.046zM452.265 436.235v0c-97.879-12.673-135.321-53.093-149.878-135.423l61.228-0.099-14.581-61.887-54.419 0.087c-0.868-9.532-1.704-19.372-2.495-29.68-13.579-173.95-118.343-199.317-144.621-202.956 44.418-28.202 81.579-35.728 82.131-35.851l0.261-0.057 1.451-0.171 1.032-0.127 1.082 0.226c0.677 0.156 58.176 11.513 115.999 59.889 57.885 48.298 115.644 134.106 115.757 280.382 0.057 35.644-5.447 82.464-12.947 125.668z" horiz-adv-x="466" />
<glyph unicode="&#xe600;" d="M98.275 457.529c13.938 14.649 31.289 21.902 51.626 21.902s37.689-7.253 51.769-21.902l234.809-233.955-234.809-233.955c-14.649-14.649-31.858-21.902-51.769-21.902s-37.12 7.253-51.626 21.902c-14.649 14.649-21.902 31.858-21.902 51.627 0 19.911 7.254 37.12 21.902 51.769l131.413 130.56-131.413 130.56c-14.649 14.649-21.902 31.858-21.902 51.769 0 19.769 7.254 37.12 21.902 51.627z" />
<glyph unicode="&#xe601;" d="M414.578-10.382c-13.938-14.649-31.289-21.902-51.627-21.902-20.48 0-37.689 7.253-51.769 21.902l-234.809 233.955 234.809 234.098c14.649 14.649 31.858 21.902 51.769 21.902s37.12-7.253 51.627-21.902 21.902-31.858 21.902-51.627c0-19.911-7.253-37.12-21.902-51.769l-131.413-130.56 131.413-130.56c14.649-14.649 21.902-31.858 21.902-51.769s-7.253-37.12-21.902-51.769z" />
<glyph unicode="&#xe602;" d="M362.666 21.334h-213.333c-35.285 0-64 28.714-64 64v256c0 35.286 28.715 64 64 64h213.333c35.286 0 64-28.714 64-64v-256c0-35.286-28.714-64-64-64zM149.333 362.667c-11.755 0-21.334-9.579-21.334-21.334v-256c0-11.755 9.579-21.334 21.334-21.334h213.333c11.755 0 21.334 9.579 21.334 21.334v256c0 11.755-9.579 21.334-21.334 21.334h-213.333zM341.334 234.667h-170.667c-5.888 0-10.667 4.779-10.667 10.667s4.779 10.666 10.666 10.666h170.666c5.888 0 10.666-4.779 10.666-10.666s-4.779-10.666-10.666-10.666zM341.334 298.667h-170.667c-5.888 0-10.667 4.779-10.667 10.666s4.779 10.666 10.666 10.666h170.666c5.888 0 10.666-4.779 10.666-10.666s-4.779-10.666-10.666-10.666zM341.334 170.667h-170.667c-5.888 0-10.667 4.779-10.667 10.666s4.779 10.666 10.666 10.666h170.666c5.888 0 10.666-4.779 10.666-10.666s-4.779-10.666-10.666-10.666zM341.334 106.667h-170.667c-5.888 0-10.667 4.779-10.667 10.666s4.779 10.666 10.666 10.666h170.666c5.888 0 10.666-4.779 10.666-10.666s-4.779-10.666-10.666-10.666z" />
<glyph unicode="&#xe603;" d="M234.577 80.656c0 109.367 111.241 144.481 103.502 252.851-5.805 69.238-50.298 146.494-169.279 146.494-118.017 0-163.482-77.255-168.315-146.494-8.703-108.361 103.502-143.483 103.502-252.851h130.59zM51.755 329.498c4.833 65.221 47.4 98.33 117.046 98.33s113.176-33.109 118.018-98.33c2.898-35.114-17.413-59.2-43.53-98.331-20.311-28.095-43.53-62.21-54.176-106.357h-39.661c-11.609 44.146-34.828 78.262-54.176 106.356-27.079 39.131-46.428 63.209-43.522 98.33zM101.081-11.853c19.349-12.043 40.623-21.075 67.712-20.069 27.088-1.006 49.334 8.026 68.683 20.068v31.487h-136.394v-31.487zM230.309 60.041h-122.226c-4.79 0-8.677-3.887-8.677-8.676v-3.106c0-4.789 3.887-8.676 8.677-8.676h122.226c4.79 0 8.677 3.887 8.677 8.676v3.106c0 4.798-3.879 8.676-8.677 8.676z" horiz-adv-x="339" />
<glyph unicode="&#xe604;" d="M602.44 302.986h-56.339v121.732c0 29.855-24.031 55.282-54.613 55.282h-436.875c-29.491 0-54.612-25.427-54.612-55.282v-304.066c0-30.962 24.031-60.817 53.514-66.343l163.292-2.759c0 0-103.757-58.058-37.132-58.058h186.754c66.624 0-36.042 58.058-36.042 58.058l109.985 1.875v-51.234c0-18.455 15.531-34.183 33.762-34.183h128.308c18.909 0 33.762 15.721 33.762 34.183v266.611c0 19.14-14.853 34.183-33.762 34.183zM440.37 268.803v-159.591h-388.632l-0.099 321.034 439.858 0.298-0.19-127.556h-17.166c-18.24 0-33.771-15.043-33.771-34.183zM537.964-14.594c-8.798 0-16.208 5.196-16.208 10.83 0 6.063 7.41 10.83 16.208 10.83 9.26 0 16.208-4.767 16.208-10.83 0-5.634-6.947-10.83-16.208-10.83zM598.409 32.947h-120.245v214.815h120.245v-214.815z" horiz-adv-x="636" />
<glyph unicode="&#xe605;" d="M85.874 78.504c-5.226-0.009-9.748-1.9-13.529-5.682s-5.7-8.327-5.778-13.626c-0.069-5.309 1.785-9.863 5.567-13.644 3.781-3.781 8.364-5.663 13.741-5.663 5.387-0.009 9.96 1.882 13.741 5.663s5.644 8.327 5.567 13.644c-0.078 5.3-1.996 9.844-5.778 13.626-3.786 3.781-8.303 5.672-13.529 5.682zM-23.586-33.154c0.248 0 0.433 0 0.556 0-0.124 0-0.313 0-0.556 0zM504.731 132.295c-4.711 4.711-10.466 7.135-17.26 7.277-17.007 0-46.344-0.014-81.678-0.027l70.983 40.988c5.75 3.33 9.532 8.299 11.312 14.933 1.776 6.625 0.985 12.83-2.328 18.585l-61.23 106.083c-3.501 5.805-8.483 9.582-14.919 11.308s-12.632 0.943-18.585-2.328c-14.702-8.492-40.041-23.135-70.564-40.777l40.759 70.61c3.312 5.755 4.108 11.952 2.328 18.585-1.776 6.625-5.562 11.602-11.312 14.933l-106.069 61.248c-5.935 3.28-12.136 4.058-18.576 2.333s-11.409-5.498-14.933-11.312c-8.52-14.758-23.218-40.248-40.924-70.936l-0.005 81.651c-0.009 6.643-2.42 12.403-7.278 17.261-4.849 4.849-10.618 7.268-17.261 7.277l-122.478 0.014c-6.776-0.129-12.54-2.553-17.251-7.269s-7.135-10.466-7.282-17.26c0-1.154-0.17-376.945-0.179-401.385 0-23.844 8.386-44.159 25.154-60.931 16.768-16.768 37.087-25.155 60.931-25.155 5.912 0 401.363 0.023 401.363 0.023 6.643 0.009 12.402 2.42 17.26 7.277 4.849 4.849 7.269 10.618 7.277 17.26l0.014 122.483c-0.124 6.776-2.553 12.536-7.269 17.251zM128.938 53.824c0.005-11.864-4.186-21.981-12.549-30.344-8.364-8.363-18.475-12.55-30.339-12.545-11.864-0.005-22.035 4.228-30.491 12.683-8.364 8.363-12.545 18.479-12.545 30.348 0.198 11.473-0.046 323.962-0.046 381.342l85.998-0.019-0.028-381.466zM394.223 285.232l46.164-79.999-251.821-145.365 92.259 159.819c50.474 29.179 94.853 54.84 113.397 65.545zM171.743 294.539c29.202 50.649 54.9 95.221 65.628 113.803l79.981-46.201-145.6-252.143-0.009 184.541zM468.288 7.608l-290.946 0.023 159.81 92.277c58.373 0.032 109.722 0.065 131.155 0.065l-0.019-92.365z" />
<glyph unicode="&#xe606;" d="M256 435.2c-70.707 0-128-57.318-128-128 0-122.214 128-281.6 128-281.6s128 159.386 128 281.6c0 70.681-57.293 128-128 128zM256 236.544c-38.169 0-69.12 30.951-69.12 69.12s30.951 69.12 69.12 69.12 69.12-30.95 69.12-69.12-30.95-69.12-69.12-69.12z" />
<glyph unicode="&#xe607;" d="M355.251 486.4h-198.502c-28.749 0-52.249-23.501-52.249-52.249v-407.501c0-28.723 23.501-52.25 52.249-52.25h198.502c28.749 0 52.25 23.526 52.25 52.25v407.501c0 28.749-23.501 52.25-52.25 52.25zM256-4.711c-20.173 0-36.557 11.699-36.557 26.137s16.384 26.137 36.557 26.137c20.199 0 36.557-11.699 36.557-26.137s-16.358-26.137-36.557-26.137zM365.696 73.677h-219.417v344.807h219.417v-344.807z" />
<glyph unicode="&#xe608;" d="M405.334 106.667h-298.666c-23.531 0-42.666-19.136-42.666-42.666s19.136-42.666 42.666-42.666h298.666c23.531 0 42.666 19.136 42.666 42.666s-19.136 42.666-42.666 42.666zM405.334 256h-298.666c-23.531 0-42.666-19.136-42.666-42.666s19.136-42.666 42.666-42.666h298.666c23.531 0 42.666 19.136 42.666 42.666s-19.136 42.666-42.666 42.666zM405.334 405.334h-298.666c-23.531 0-42.666-19.136-42.666-42.666s19.136-42.667 42.666-42.667h298.666c23.531 0 42.666 19.136 42.666 42.666s-19.136 42.666-42.666 42.666z" />
<glyph unicode="&#xe609;" d="M490.112 382.496c14.576-14 21.872-31.248 21.872-51.648s-7.296-37.648-21.872-51.648l-233.792-234.72-233.792 234.704c-14.608 14.608-21.904 31.776-21.904 51.648 0 19.808 7.296 37.056 21.904 51.648s31.776 21.872 51.648 21.872 37.056-7.28 51.648-21.872l130.48-131.328 130.448 131.328c14.608 14.608 31.808 21.872 51.68 21.872 19.84 0.016 37.088-7.248 51.68-21.856z" />
<glyph unicode="&#xe60a;" d="M22.496 66.368c-14.576 14-21.872 31.248-21.872 51.648s7.296 37.648 21.872 51.648l233.792 234.704 233.792-234.688c14.608-14.608 21.904-31.776 21.904-51.648 0-19.808-7.296-37.056-21.904-51.648-14.608-14.608-31.776-21.872-51.648-21.872s-37.056 7.28-51.648 21.872l-130.48 131.328-130.448-131.328c-14.608-14.608-31.808-21.872-51.68-21.872-19.84-0.032-37.072 7.248-51.68 21.856z" />
<glyph unicode="&#xe60b;" d="M256 480c-141.38 0-256-114.62-256-255.986 0-141.394 114.621-256 256-256 141.38 0 256 114.606 256 256 0 141.366-114.62 255.986-256 255.986zM256 22.594c-111.243 0-201.419 90.177-201.419 201.406s90.177 201.392 201.419 201.392c111.229 0 201.392-90.177 201.392-201.392 0-111.229-90.163-201.406-201.392-201.406zM256 370.246c-80.774 0-146.26-65.458-146.26-146.232 0-80.788 65.486-146.246 146.26-146.246 80.774 0 146.246 65.471 146.246 146.246 0.014 80.775-65.471 146.232-146.246 146.232zM256 132.582c-50.486 0-91.418 40.932-91.418 91.431s40.932 91.404 91.418 91.404c50.486 0 91.404-40.918 91.404-91.404 0.014-50.499-40.918-91.431-91.404-91.431zM296.505 224.014c0-22.37-18.135-40.505-40.505-40.505s-40.505 18.135-40.505 40.505c0 22.37 18.135 40.505 40.505 40.505 22.37 0 40.505-18.135 40.505-40.505z" />
<glyph unicode="&#xe60c;" d="M25.465 432.322c20.367-10.58 307.251-171.264 317.422-176.542 11.887-7.071 25.466-8.839 39.043-8.839 13.578 0 28.847 1.768 39.043 8.839 10.197 5.303 297.055 165.961 317.422 176.542 22.058 12.349 40.735 47.678 3.408 47.678h-718.029c-39.044 0-18.677-35.303 1.691-47.678zM746.877 344.065c-22.058-12.349-312.324-169.497-325.902-176.567-15.269-8.839-25.466-8.839-39.043-8.839-13.578 0-23.774 0-39.043 8.839-13.578 7.071-302.153 164.194-325.902 176.567-16.985 8.839-16.985-1.767-16.985-8.813 0-8.839 0-324.877 0-324.877 0-17.651 23.774-42.374 42.425-42.374h678.986c18.677 0 42.426 24.723 42.426 42.374 0 0 0 316.038 0 324.877 0.025 7.046 0.025 17.626-16.96 8.813z" horiz-adv-x="764" />
<glyph unicode="&#xe60d;" d="M256.183 480c-141.349 0-256-114.651-256-256s114.651-256 256-256c141.349 0 256 114.651 256 256-0.183 141.349-114.651 256-256 256zM136.046 307.2h249.965c12.983 0 6.583-12.252-1.097-16.64-7.132-3.657-106.971-59.612-110.629-61.44-3.474-2.377-8.777-3.108-13.531-3.108s-9.508 0.548-13.531 3.108c-3.475 1.828-103.497 57.783-110.629 61.44-6.948 4.205-14.080 16.64-0.548 16.64zM393.875 143.543c0-6.217-8.228-14.812-14.812-14.812h-236.435c-6.583 0-14.811 8.594-14.811 14.812 0 0 0 110.080 0 113.188 0 2.377 0 6.217 5.851 3.109 8.228-4.389 108.8-59.063 113.554-61.44 5.303-3.108 8.777-3.108 13.531-3.108s8.228 0 13.531 3.108c4.755 2.377 105.875 57.234 113.555 61.44 5.851 3.108 5.851-0.548 5.851-3.108 0.183-3.108 0.183-113.188 0.183-113.188z" />
<glyph unicode="&#xe60f;" d="M534.267 261.207l-8.929 11.271v155.651c0 35.716-19.377 51.871-51.945 51.871h-337.594c-33.392 0-51.945-17.052-51.945-51.871v-155.633l-14.18-11.271c-38.112 0-69.692-37.435-69.692-77.029v-204.12c0-6.404 5.452-12.076 11.618-12.076h580.723c6.166 0 11.619 5.654 11.619 12.076v208.73c0 39.594-31.581 72.4-69.674 72.4zM473.394 142.789h-337.594v285.339h337.613v-285.339zM534.267 164.673c-12.698 0-23.237 10.942-23.237 24.134s10.521 24.134 23.237 24.134c12.698 0 23.237-10.942 23.237-24.134-0.019-13.192-10.539-24.134-23.237-24.134zM421.467 350.312h-233.742v-25.945h233.723v25.945zM421.467 272.477h-233.742v-25.945h233.723v25.945z" horiz-adv-x="604" />
<glyph unicode="&#xe611;" d="M256.468 340.119l-116.236 116.236c-15.686 15.803-34.999 23.645-57.709 23.645-22.709 0-42.257-8.077-58.528-24.347-16.27-16.271-24.23-35.585-23.997-58.177 0.234-22.475 8.194-41.672 23.997-57.474l118.343-114.129-118.343-118.343c-16.27-16.154-24.23-35.585-23.997-58.060s8.194-41.671 23.997-57.474c15.803-15.803 34.883-23.762 57.474-23.996 22.475-0.234 41.906 7.726 58.177 23.997l116.236 120.45 116.236-120.45c15.803-15.803 34.882-23.762 57.474-23.997 22.474-0.234 41.906 7.726 58.176 23.997 16.27 16.271 24.347 35.702 24.347 58.527 0 22.709-7.842 42.023-23.645 57.825l-118.46 118.226 117.641 113.426c16.27 16.271 24.348 35.702 24.348 58.528 0 22.709-7.842 42.023-23.645 57.825-15.803 15.803-35.117 23.645-57.825 23.645-22.709 0-42.257-8.077-58.528-24.348l-115.534-115.534z" />
<glyph unicode="&#xe612;" d="M416 203.243c0 41.558-13.184 72.469-44.075 103.339-8.341 8.32-21.824 8.32-30.166 0-8.341-8.341-8.341-21.846 0-30.187 23.019-22.997 31.574-42.816 31.574-73.152 0-31.339-12.202-60.8-34.368-82.944-21.418-21.397-44.331-32.043-73.13-33.984l26.582 26.603c8.341 8.341 8.341 21.824 0 30.166s-21.824 8.341-30.166 0l-79.082-79.082 79.082-79.082c4.16-4.16 9.622-6.25 15.082-6.25s10.923 2.091 15.082 6.25c8.341 8.341 8.341 21.824 0 30.166l-28.522 28.502c41.024 1.75 75.563 16.896 105.238 46.528 30.229 30.208 46.87 70.378 46.87 113.13zM138.667 202.667c0 31.339 12.203 60.8 34.368 82.966 21.525 21.526 44.63 32.171 73.749 34.005l-27.2-27.2c-8.341-8.341-8.341-21.824 0-30.166 4.16-4.181 9.621-6.272 15.083-6.272s10.922 2.091 15.083 6.25l79.082 79.082-79.082 79.082c-8.341 8.341-21.824 8.341-30.166 0s-8.341-21.824 0-30.165l27.968-27.968c-40.832-1.834-75.2-16.982-104.683-46.486-30.23-30.208-46.87-70.379-46.87-113.13 0-41.558 13.184-72.469 44.075-103.339 4.16-4.16 9.621-6.229 15.083-6.229s10.922 2.091 15.083 6.25c8.341 8.341 8.341 21.846 0 30.187-23.018 22.976-31.573 42.795-31.573 73.13z" />
<glyph unicode="&#xe613;" d="M512 224c0 141.385-114.615 256-256 256s-256-114.615-256-256c0-141.385 114.615-256 256-256 141.385 0 256 114.615 256 256zM158.355 231.797c-6.1 6.1-9.143 13.297-9.143 21.577 0 8.294 3.042 15.492 9.143 21.577 6.085 6.1 13.282 9.143 21.577 9.143 8.28 0 15.477-3.042 21.577-9.143l54.492-54.857 54.491 54.857c6.086 6.1 13.283 9.143 21.577 9.143 8.28 0 15.477-3.042 21.577-9.143 6.086-5.851 9.143-13.034 9.143-21.577 0-8.529-3.058-15.726-9.143-21.577l-97.645-98.011-97.645 98.012z" />
<glyph unicode="&#xe614;" d="M256-32c141.385 0 256 114.615 256 256s-114.615 256-256 256c-141.385 0-256-114.615-256-256 0-141.385 114.615-256 256-256zM263.797 317.988c6.1 6.1 13.298 9.143 21.577 9.143 8.294 0 15.491-3.042 21.577-9.143 6.1-6.085 9.143-13.282 9.143-21.577 0-8.28-3.043-15.477-9.143-21.577l-54.857-54.492 54.857-54.491c6.1-6.086 9.143-13.283 9.143-21.577 0-8.28-3.043-15.477-9.143-21.577-5.851-6.086-13.034-9.143-21.577-9.143-8.529 0-15.726 3.058-21.577 9.143l-98.012 97.645 98.012 97.645z" />
<glyph unicode="&#xe615;" d="M341.394 323.62h-22.637c-4.060 0-7.351-3.292-7.351-7.351v-22.637c0-4.060 3.291-7.351 7.351-7.351h22.637c4.060 0 7.351 3.291 7.351 7.351v22.637c0.019 4.060-3.273 7.351-7.351 7.351zM255.982 480c-141.367 0-255.982-114.596-255.982-255.982 0-141.367 114.597-255.982 255.982-255.982 141.367 0 255.982 114.596 255.982 255.982-0.019 141.385-114.615 255.982-255.982 255.982zM387.657 157.568c0-36.297-29.513-65.81-65.81-65.81h-131.712c-36.297 0-65.811 29.513-65.811 65.81v90.094h76.453c-3.767-8.028-5.906-17.024-5.906-26.514 0-34.45 28.069-62.519 62.519-62.519 34.45 0 62.519 28.069 62.519 62.519 0 9.49-2.121 18.487-5.998 26.514h73.747v-90.094zM230.107 221.147c0 14.317 11.612 25.929 25.929 25.929s25.929-11.612 25.929-25.929c0-14.317-11.611-25.929-25.929-25.929-14.317 0-25.929 11.611-25.929 25.929zM387.657 272.055h-94.061c-10.259 7.351-22.748 11.612-36.188 11.612-13.459 0-25.929-4.261-36.096-11.612h-96.877v18.377c0 36.297 29.513 65.81 65.81 65.81h131.602c36.297 0 65.81-29.513 65.81-65.81v-18.377z" />
<glyph unicode="&#xe616;" d="M0 224c0-141.385 114.615-256 256-256s256 114.615 256 256c0 141.385-114.615 256-256 256-141.385 0-256-114.615-256-256zM353.646 216.203c6.1-6.1 9.143-13.298 9.143-21.577 0-8.294-3.043-15.491-9.143-21.577-6.086-6.1-13.283-9.143-21.577-9.143-8.28 0-15.477 3.043-21.577 9.143l-54.492 54.857-54.492-54.857c-6.085-6.1-13.282-9.143-21.577-9.143-8.28 0-15.477 3.043-21.577 9.143-6.085 5.851-9.143 13.034-9.143 21.577 0 8.529 3.058 15.726 9.143 21.577l97.645 98.012 97.645-98.012z" />
<glyph unicode="&#xe617;" d="M256 480c-141.385 0-256-114.615-256-256s114.615-256 256-256c141.385 0 256 114.615 256 256 0 141.385-114.615 256-256 256zM248.203 126.354c-6.1-6.1-13.297-9.143-21.577-9.143-8.294 0-15.492 3.043-21.577 9.143-6.1 6.086-9.143 13.283-9.143 21.577 0 8.28 3.042 15.477 9.143 21.577l54.857 54.492-54.857 54.492c-6.1 6.085-9.143 13.282-9.143 21.577 0 8.28 3.042 15.477 9.143 21.577 5.851 6.085 13.034 9.143 21.577 9.143 8.529 0 15.726-3.058 21.577-9.143l98.011-97.645-98.012-97.645z" />
<glyph unicode="&#xe618;" d="M256 476.16c-135.731 0-245.76-110.029-245.76-245.76s110.029-245.76 245.76-245.76 245.76 110.029 245.76 245.76-110.029 245.76-245.76 245.76zM355.942 274.816c0.103-2.074 0.154-4.173 0.154-6.272 0-63.949-48.691-137.702-137.728-137.702-27.315 0-52.787 7.987-74.189 21.76 3.789-0.461 7.655-0.666 11.546-0.666 22.681 0 43.546 7.731 60.135 20.736-21.171 0.384-39.066 14.387-45.235 33.587 2.944-0.563 5.99-0.87 9.088-0.87 4.429 0 8.704 0.589 12.749 1.69-22.119 4.454-38.835 24.013-38.835 47.463 0 0.205 0 0.41 0.025 0.589 6.528-3.609 14.003-5.786 21.913-6.042-12.953 8.678-21.504 23.475-21.504 40.294 0 8.883 2.381 17.203 6.554 24.346 23.859-29.312 59.546-48.589 99.763-50.586-0.819 3.533-1.255 7.219-1.255 11.034 0 26.727 21.683 48.41 48.409 48.41 13.926 0 26.496-5.863 35.328-15.283 11.034 2.15 21.401 6.169 30.745 11.725-3.635-11.29-11.289-20.787-21.299-26.777 9.805 1.178 19.123 3.763 27.801 7.629-6.477-9.702-14.72-18.227-24.166-25.063z" />
<glyph unicode="&#xe619;" d="M256 476.16c-135.731 0-245.76-110.029-245.76-245.76s110.029-245.76 245.76-245.76 245.76 110.029 245.76 245.76-110.029 245.76-245.76 245.76zM314.189 306.329h-36.941c-4.352 0-9.216-5.76-9.216-13.415v-26.675h46.183v-38.042h-46.183v-114.202h-43.623v114.202h-39.526v38.016h39.526v22.375c0 32.103 22.272 58.189 52.839 58.189h36.941v-40.448z" />
<glyph unicode="&#xe61a;" d="M232.883 299.904c-6.169 21.76-16.154 28.185-31.693 28.185-1.664 0-3.353-0.231-4.966-0.666-6.758-1.92-12.083-7.552-15.053-15.872-3.047-8.448-3.251-17.28-0.589-27.315 4.71-17.92 17.459-30.951 30.336-30.951 1.664 0 3.353 0.231 4.966 0.666 14.003 3.968 22.81 25.421 16.999 45.952zM256 476.16c-135.731 0-245.76-110.029-245.76-245.76s110.029-245.76 245.76-245.76c135.757 0 245.76 110.029 245.76 245.76s-110.003 245.76-245.76 245.76zM241.843 124.877c-15.463-7.501-32.077-8.295-38.502-8.295-1.229 0-1.92 0.026-2.023 0.026 0 0-0.487 0-1.255 0-10.035 0-59.981 2.304-59.981 47.795 0 44.697 54.375 48.179 71.040 48.179h0.461c-9.6 12.851-7.603 25.805-7.603 25.805-0.845-0.051-2.099-0.102-3.609-0.102-6.298 0-18.406 0.999-28.8 7.731-12.723 8.167-19.174 22.119-19.174 41.446 0 54.553 59.546 56.755 60.16 56.781h59.469v-1.305c0-6.656-11.93-7.936-20.096-9.063-2.765-0.384-8.294-0.947-9.881-1.741 15.078-8.038 17.511-20.711 17.511-39.552 0-21.427-8.397-32.768-17.305-40.755-5.504-4.915-9.856-8.832-9.856-14.003 0-5.069 5.939-10.291 12.851-16.358 11.289-9.933 26.777-23.526 26.777-46.361 0-23.603-10.163-40.499-30.183-50.227zM371.891 230.631h-38.81v-38.809h-24.576v38.81h-38.81v24.576h38.81v38.784h24.576v-38.809h38.81v-24.55zM210.509 200.935c-1.331 0-2.662-0.051-3.994-0.154-11.367-0.819-21.863-5.094-29.465-12.007-7.526-6.81-11.341-15.385-10.803-24.089 1.126-18.176 20.685-28.851 44.391-27.136 23.373 1.69 38.938 15.13 37.786 33.331-1.101 17.127-15.975 30.055-37.913 30.055z" />
<glyph unicode="&#xe61b;" d="M256 476.16c-135.731 0-245.76-110.029-245.76-245.76s110.029-245.76 245.76-245.76 245.76 110.029 245.76 245.76-110.029 245.76-245.76 245.76zM195.84 128.538h-49.767v160.128h49.767v-160.128zM170.649 308.327c-15.719 0-25.881 11.161-25.881 24.909 0 14.080 10.47 24.883 26.522 24.883s25.881-10.803 26.189-24.883c0.025-13.773-10.137-24.909-26.829-24.909zM377.575 128.538h-49.741v88.755c0 20.633-7.219 34.688-25.216 34.688-13.747 0-21.913-9.498-25.549-18.662-1.305-3.251-1.639-7.859-1.639-12.416v-92.339h-49.792v109.056c0 19.968-0.64 36.685-1.305 51.072h43.213l2.304-22.247h0.973c6.553 10.471 22.605 25.856 49.459 25.856 32.743 0 57.293-21.913 57.293-69.069v-94.695z" />
</font>
</defs>
</svg>
